<svg id="visual" viewBox="0 0 900 600" width="900" height="600" xmlns="http://www.w3.org/2000/svg" xmlns:xlink="http://www.w3.org/1999/xlink" version="1.1"><path d="M0 73L82 97L164 67L245 49L327 151L409 145L491 85L573 139L655 133L736 79L818 91L900 115L900 0L818 0L736 0L655 0L573 0L491 0L409 0L327 0L245 0L164 0L82 0L0 0Z" fill="#00cc8e"></path><path d="M0 181L82 181L164 175L245 145L327 199L409 265L491 127L573 211L655 241L736 127L818 205L900 223L900 113L818 89L736 77L655 131L573 137L491 83L409 143L327 149L245 47L164 65L82 95L0 71Z" fill="#00b98a"></path><path d="M0 415L82 271L164 331L245 337L327 313L409 451L491 235L573 367L655 403L736 427L818 319L900 343L900 221L818 203L736 125L655 239L573 209L491 125L409 263L327 197L245 143L164 173L82 179L0 179Z" fill="#00a784"></path><path d="M0 511L82 541L164 541L245 499L327 529L409 529L491 535L573 499L655 565L736 559L818 523L900 535L900 341L818 317L736 425L655 401L573 365L491 233L409 449L327 311L245 335L164 329L82 269L0 413Z" fill="#00957c"></path><path d="M0 601L82 601L164 601L245 601L327 601L409 601L491 601L573 601L655 601L736 601L818 601L900 601L900 533L818 521L736 557L655 563L573 497L491 533L409 527L327 527L245 497L164 539L82 539L0 509Z" fill="#038373"></path></svg>