<svg xmlns="http://www.w3.org/2000/svg" version="1.1" xmlns:xlink="http://www.w3.org/1999/xlink" xmlns:svgjs="http://svgjs.dev/svgjs" viewBox="0 0 2400 800"><defs><linearGradient x1="50%" y1="0%" x2="50%" y2="100%" id="sssurf-grad"><stop stop-color="hsl(208, 77%, 50%)" stop-opacity="1" offset="0%"></stop><stop stop-color="hsl(208, 74%, 93%)" stop-opacity="1" offset="100%"></stop></linearGradient></defs><g fill="url(#sssurf-grad)" transform="matrix(1,0,0,1,10.8282470703125,223.59481048583984)"><path d="M-10,10C33.75,11.875,114.58333333333334,26.708333333333336,200,19C285.41666666666663,11.291666666666666,316.66666666666663,-30.333333333333332,400,-27C483.33333333333337,-23.666666666666668,516.6666666666666,33.75,600,35C683.3333333333334,36.25,716.6666666666666,-21.208333333333332,800,-21C883.3333333333334,-20.791666666666668,916.6666666666666,37.041666666666664,1000,36C1083.3333333333333,34.958333333333336,1116.6666666666667,-23.708333333333332,1200,-26C1283.3333333333333,-28.291666666666668,1316.6666666666667,18.958333333333336,1400,25C1483.3333333333333,31.041666666666664,1516.6666666666667,-2.208333333333334,1600,3C1683.3333333333333,8.208333333333334,1716.6666666666667,51.041666666666664,1800,50C1883.3333333333333,48.958333333333336,1916.6666666666667,-4.083333333333334,2000,-2C2083.3333333333335,0.08333333333333348,2118.75,57.5,2200,60C2281.25,62.5,2296.25,-60.83333333333333,2390,10C2483.75,80.83333333333333,3252.0833333333335,214.58333333333331,2650,400C2047.9166666666665,585.4166666666667,156.25,795.8333333333334,-500,900" transform="matrix(1,0,0,1,0,35)" opacity="0.05"></path><path d="M-10,10C33.75,11.875,114.58333333333334,26.708333333333336,200,19C285.41666666666663,11.291666666666666,316.66666666666663,-30.333333333333332,400,-27C483.33333333333337,-23.666666666666668,516.6666666666666,33.75,600,35C683.3333333333334,36.25,716.6666666666666,-21.208333333333332,800,-21C883.3333333333334,-20.791666666666668,916.6666666666666,37.041666666666664,1000,36C1083.3333333333333,34.958333333333336,1116.6666666666667,-23.708333333333332,1200,-26C1283.3333333333333,-28.291666666666668,1316.6666666666667,18.958333333333336,1400,25C1483.3333333333333,31.041666666666664,1516.6666666666667,-2.208333333333334,1600,3C1683.3333333333333,8.208333333333334,1716.6666666666667,51.041666666666664,1800,50C1883.3333333333333,48.958333333333336,1916.6666666666667,-4.083333333333334,2000,-2C2083.3333333333335,0.08333333333333348,2118.75,57.5,2200,60C2281.25,62.5,2296.25,-60.83333333333333,2390,10C2483.75,80.83333333333333,3252.0833333333335,214.58333333333331,2650,400C2047.9166666666665,585.4166666666667,156.25,795.8333333333334,-500,900" transform="matrix(1,0,0,1,0,70)" opacity="0.21"></path><path d="M-10,10C33.75,11.875,114.58333333333334,26.708333333333336,200,19C285.41666666666663,11.291666666666666,316.66666666666663,-30.333333333333332,400,-27C483.33333333333337,-23.666666666666668,516.6666666666666,33.75,600,35C683.3333333333334,36.25,716.6666666666666,-21.208333333333332,800,-21C883.3333333333334,-20.791666666666668,916.6666666666666,37.041666666666664,1000,36C1083.3333333333333,34.958333333333336,1116.6666666666667,-23.708333333333332,1200,-26C1283.3333333333333,-28.291666666666668,1316.6666666666667,18.958333333333336,1400,25C1483.3333333333333,31.041666666666664,1516.6666666666667,-2.208333333333334,1600,3C1683.3333333333333,8.208333333333334,1716.6666666666667,51.041666666666664,1800,50C1883.3333333333333,48.958333333333336,1916.6666666666667,-4.083333333333334,2000,-2C2083.3333333333335,0.08333333333333348,2118.75,57.5,2200,60C2281.25,62.5,2296.25,-60.83333333333333,2390,10C2483.75,80.83333333333333,3252.0833333333335,214.58333333333331,2650,400C2047.9166666666665,585.4166666666667,156.25,795.8333333333334,-500,900" transform="matrix(1,0,0,1,0,105)" opacity="0.37"></path><path d="M-10,10C33.75,11.875,114.58333333333334,26.708333333333336,200,19C285.41666666666663,11.291666666666666,316.66666666666663,-30.333333333333332,400,-27C483.33333333333337,-23.666666666666668,516.6666666666666,33.75,600,35C683.3333333333334,36.25,716.6666666666666,-21.208333333333332,800,-21C883.3333333333334,-20.791666666666668,916.6666666666666,37.041666666666664,1000,36C1083.3333333333333,34.958333333333336,1116.6666666666667,-23.708333333333332,1200,-26C1283.3333333333333,-28.291666666666668,1316.6666666666667,18.958333333333336,1400,25C1483.3333333333333,31.041666666666664,1516.6666666666667,-2.208333333333334,1600,3C1683.3333333333333,8.208333333333334,1716.6666666666667,51.041666666666664,1800,50C1883.3333333333333,48.958333333333336,1916.6666666666667,-4.083333333333334,2000,-2C2083.3333333333335,0.08333333333333348,2118.75,57.5,2200,60C2281.25,62.5,2296.25,-60.83333333333333,2390,10C2483.75,80.83333333333333,3252.0833333333335,214.58333333333331,2650,400C2047.9166666666665,585.4166666666667,156.25,795.8333333333334,-500,900" transform="matrix(1,0,0,1,0,140)" opacity="0.53"></path><path d="M-10,10C33.75,11.875,114.58333333333334,26.708333333333336,200,19C285.41666666666663,11.291666666666666,316.66666666666663,-30.333333333333332,400,-27C483.33333333333337,-23.666666666666668,516.6666666666666,33.75,600,35C683.3333333333334,36.25,716.6666666666666,-21.208333333333332,800,-21C883.3333333333334,-20.791666666666668,916.6666666666666,37.041666666666664,1000,36C1083.3333333333333,34.958333333333336,1116.6666666666667,-23.708333333333332,1200,-26C1283.3333333333333,-28.291666666666668,1316.6666666666667,18.958333333333336,1400,25C1483.3333333333333,31.041666666666664,1516.6666666666667,-2.208333333333334,1600,3C1683.3333333333333,8.208333333333334,1716.6666666666667,51.041666666666664,1800,50C1883.3333333333333,48.958333333333336,1916.6666666666667,-4.083333333333334,2000,-2C2083.3333333333335,0.08333333333333348,2118.75,57.5,2200,60C2281.25,62.5,2296.25,-60.83333333333333,2390,10C2483.75,80.83333333333333,3252.0833333333335,214.58333333333331,2650,400C2047.9166666666665,585.4166666666667,156.25,795.8333333333334,-500,900" transform="matrix(1,0,0,1,0,175)" opacity="0.68"></path><path d="M-10,10C33.75,11.875,114.58333333333334,26.708333333333336,200,19C285.41666666666663,11.291666666666666,316.66666666666663,-30.333333333333332,400,-27C483.33333333333337,-23.666666666666668,516.6666666666666,33.75,600,35C683.3333333333334,36.25,716.6666666666666,-21.208333333333332,800,-21C883.3333333333334,-20.791666666666668,916.6666666666666,37.041666666666664,1000,36C1083.3333333333333,34.958333333333336,1116.6666666666667,-23.708333333333332,1200,-26C1283.3333333333333,-28.291666666666668,1316.6666666666667,18.958333333333336,1400,25C1483.3333333333333,31.041666666666664,1516.6666666666667,-2.208333333333334,1600,3C1683.3333333333333,8.208333333333334,1716.6666666666667,51.041666666666664,1800,50C1883.3333333333333,48.958333333333336,1916.6666666666667,-4.083333333333334,2000,-2C2083.3333333333335,0.08333333333333348,2118.75,57.5,2200,60C2281.25,62.5,2296.25,-60.83333333333333,2390,10C2483.75,80.83333333333333,3252.0833333333335,214.58333333333331,2650,400C2047.9166666666665,585.4166666666667,156.25,795.8333333333334,-500,900" transform="matrix(1,0,0,1,0,210)" opacity="0.84"></path><path d="M-10,10C33.75,11.875,114.58333333333334,26.708333333333336,200,19C285.41666666666663,11.291666666666666,316.66666666666663,-30.333333333333332,400,-27C483.33333333333337,-23.666666666666668,516.6666666666666,33.75,600,35C683.3333333333334,36.25,716.6666666666666,-21.208333333333332,800,-21C883.3333333333334,-20.791666666666668,916.6666666666666,37.041666666666664,1000,36C1083.3333333333333,34.958333333333336,1116.6666666666667,-23.708333333333332,1200,-26C1283.3333333333333,-28.291666666666668,1316.6666666666667,18.958333333333336,1400,25C1483.3333333333333,31.041666666666664,1516.6666666666667,-2.208333333333334,1600,3C1683.3333333333333,8.208333333333334,1716.6666666666667,51.041666666666664,1800,50C1883.3333333333333,48.958333333333336,1916.6666666666667,-4.083333333333334,2000,-2C2083.3333333333335,0.08333333333333348,2118.75,57.5,2200,60C2281.25,62.5,2296.25,-60.83333333333333,2390,10C2483.75,80.83333333333333,3252.0833333333335,214.58333333333331,2650,400C2047.9166666666665,585.4166666666667,156.25,795.8333333333334,-500,900" transform="matrix(1,0,0,1,0,245)" opacity="1"></path></g>
</svg>